<svg xmlns="http://www.w3.org/2000/svg" xmlns:xlink="http://www.w3.org/1999/xlink" width="1920" zoomAndPan="magnify" viewBox="0 0 1440 809.999993" height="1080" preserveAspectRatio="xMidYMid meet" version="1.0"><defs><clipPath id="id1"><path d="M 67.914062 715.65625 L 322.414062 715.65625 L 322.414062 798.839844 L 67.914062 798.839844 Z M 67.914062 715.65625 " clip-rule="nonzero"/></clipPath><clipPath id="id2"><path d="M 88 474.84375 L 142 474.84375 L 142 528 L 88 528 Z M 88 474.84375 " clip-rule="nonzero"/></clipPath></defs><path fill="#4d4d4d" d="M 1466.171875 806.003906 C 1464.308594 803.578125 1460.792969 803.117188 1458.359375 804.972656 L 1410.292969 841.808594 C 1407.859375 843.671875 1407.398438 847.183594 1409.261719 849.609375 L 1409.261719 849.613281 C 1411.125 852.042969 1414.636719 852.507812 1417.066406 850.648438 L 1465.140625 813.8125 C 1467.574219 811.949219 1468.035156 808.4375 1466.171875 806.003906 " fill-opacity="1" fill-rule="evenodd"/><g clip-path="url(#id1)"><path fill="#52b194" d="M 246.578125 715.710938 C 246.578125 715.710938 251.621094 756.3125 285.582031 738.519531 C 290.535156 735.921875 304.320312 724.164062 322.394531 748.875 C 322.394531 748.875 306.542969 741.867188 294.429688 754.582031 C 294.429688 754.582031 259.996094 793.554688 232.882812 762.285156 C 232.882812 762.285156 220.902344 781.292969 255.621094 780.246094 C 255.621094 780.246094 213.578125 816.746094 195.023438 775.214844 C 195.023438 775.214844 165.15625 817.988281 142.421875 788.429688 C 85.523438 803.609375 113.316406 758.480469 67.929688 746.710938 C 107.878906 710.402344 126.511719 810.609375 144.601562 731.308594 L 246.578125 715.710938 " fill-opacity="1" fill-rule="nonzero"/></g><path fill="#428d76" d="M 246.578125 715.710938 L 144.601562 731.308594 C 144.144531 733.308594 143.6875 735.191406 143.230469 736.96875 C 176.773438 741.527344 217.863281 737.644531 249.632812 726.824219 C 247.226562 720.941406 246.578125 715.710938 246.578125 715.710938 " fill-opacity="1" fill-rule="nonzero"/><path fill="#52b194" d="M 32.761719 548.183594 C 25.703125 542.308594 28.414062 527.429688 38.820312 514.945312 C 49.230469 502.46875 63.386719 497.117188 70.445312 502.992188 C 77.503906 508.871094 80.953125 530.152344 70.546875 542.632812 C 60.140625 555.113281 39.816406 554.058594 32.761719 548.183594 " fill-opacity="1" fill-rule="nonzero"/><path fill="#52b194" d="M 54.097656 542.371094 C 54.097656 542.371094 100.640625 570.375 84.664062 603.742188 L 120.902344 576.359375 C 94.234375 565.519531 78.609375 547.0625 70.964844 523.101562 L 54.097656 542.371094 " fill-opacity="1" fill-rule="nonzero"/><path fill="#52b194" d="M 253.242188 486.992188 C 255.96875 478.226562 270.761719 475.027344 286.289062 479.847656 C 301.808594 484.671875 312.183594 495.6875 309.460938 504.449219 C 306.730469 513.214844 288.378906 524.5625 272.851562 519.738281 C 257.328125 514.917969 250.511719 495.753906 253.242188 486.992188 " fill-opacity="1" fill-rule="nonzero"/><path fill="#52b194" d="M 266.792969 504.457031 C 266.792969 504.457031 258.738281 558.144531 221.769531 556.183594 L 260.972656 579.128906 C 260.773438 550.367188 271.851562 528.875 291.070312 512.636719 L 266.792969 504.457031 " fill-opacity="1" fill-rule="nonzero"/><path fill="#66caa6" d="M 176.617188 535.496094 C 141.359375 539.5625 30.210938 539.070312 82.117188 697.199219 C 100.859375 754.304688 290.632812 737.285156 298.78125 677.5 C 321.265625 512.605469 212.03125 533.136719 176.617188 535.496094 " fill-opacity="1" fill-rule="nonzero"/><path fill="#c2e9d6" d="M 118.605469 556.675781 C 151.617188 542.203125 200.851562 537.726562 235.933594 546.007812 C 194.4375 545.292969 159.296875 548.488281 118.605469 556.675781 " fill-opacity="1" fill-rule="nonzero"/><path fill="#52b194" d="M 108.273438 617.847656 C 115.296875 652.136719 180.734375 649.898438 220.429688 641.785156 C 247.90625 636.167969 278.050781 625.417969 273.148438 601.476562 C 258.832031 531.558594 94.136719 548.796875 108.273438 617.847656 " fill-opacity="1" fill-rule="nonzero"/><path fill="#c2e9d6" d="M 135.953125 665.492188 C 141.574219 660.738281 149.253906 658.097656 156.769531 656.695312 C 166.308594 655.0625 175.894531 653.425781 185.527344 652.394531 C 198.90625 650.964844 212.316406 648.980469 225.804688 650.015625 C 233.460938 650.601562 244.035156 650.242188 249.414062 656.714844 C 255.472656 664.011719 252.679688 676.761719 248.242188 684.234375 C 240.621094 697.070312 220.113281 720.273438 172.992188 715.667969 C 156.625 714.066406 124.835938 701.617188 127.632812 680.636719 C 128.511719 674.070312 131.625 669.152344 135.953125 665.492188 " fill-opacity="1" fill-rule="nonzero"/><path fill="#264f43" d="M 157.234375 671.71875 C 153.625 674.355469 147.921875 677.890625 147.363281 682.789062 C 146.792969 687.820312 152.304688 692.613281 155.9375 695.28125 C 173.386719 708.101562 195.878906 705.742188 213.203125 694.199219 C 219.191406 690.214844 225.707031 685.042969 228.980469 678.472656 C 230.453125 675.5 232.824219 671.300781 230.09375 668.09375 C 229.230469 667.085938 227.496094 666.46875 226.285156 665.882812 C 221.4375 663.539062 215.503906 663.242188 210.203125 663.164062 C 204.746094 663.078125 199.355469 663.480469 193.9375 664.164062 C 193.9375 664.164062 164.304688 666.554688 157.234375 671.71875 " fill-opacity="1" fill-rule="nonzero"/><path fill="#ffffff" d="M 211.027344 676.550781 L 218.945312 663.761719 C 216.023438 663.320312 213.023438 663.203125 210.203125 663.164062 C 208.171875 663.132812 206.152344 663.183594 204.128906 663.277344 L 211.027344 676.550781 " fill-opacity="1" fill-rule="nonzero"/><path fill="#ffffff" d="M 172.320312 666.992188 C 165.9375 668.175781 159.9375 669.742188 157.234375 671.71875 L 169.585938 682.402344 L 172.320312 666.992188 " fill-opacity="1" fill-rule="nonzero"/><path fill="#ffffff" d="M 105.679688 614.953125 C 112.699219 649.242188 176.359375 647.367188 214.941406 639.480469 C 241.644531 634.023438 270.914062 623.453125 266.011719 599.507812 C 251.695312 529.589844 91.542969 545.902344 105.679688 614.953125 " fill-opacity="1" fill-rule="nonzero"/><path fill="#1f292a" d="M 133.84375 597.109375 C 139.625 625.351562 185.1875 627.164062 216.660156 620.730469 C 235.371094 616.90625 255.191406 609.203125 251.148438 589.46875 C 243.917969 554.144531 122.597656 542.179688 133.84375 597.109375 " fill-opacity="1" fill-rule="nonzero"/><path fill="#264f43" d="M 35.027344 535.78125 C 49.933594 530.859375 58.527344 518.253906 63.976562 504.453125 C 50.476562 510.625 38.648438 521.164062 35.027344 535.78125 " fill-opacity="1" fill-rule="nonzero"/><path fill="#264f43" d="M 259.25 486 C 272.480469 498.386719 289.074219 503.3125 306.808594 501.710938 C 297.492188 488.21875 286.167969 481.445312 272.3125 482.707031 C 268.1875 483.082031 263.839844 484.167969 259.25 486 " fill-opacity="1" fill-rule="nonzero"/><path fill="#596868" d="M 149.210938 591.847656 C 149.855469 598.964844 153.859375 604.898438 161.40625 604.214844 C 167.480469 603.660156 177.472656 598.460938 176.769531 590.726562 C 175.6875 578.859375 146.515625 562.300781 149.210938 591.847656 " fill-opacity="1" fill-rule="nonzero"/><path fill="#52b194" d="M 81.054688 674.316406 C 81.835938 682.886719 88.148438 689.429688 93.96875 688.902344 C 98.546875 688.484375 102.707031 683.101562 102.179688 677.285156 C 101.511719 669.984375 94.398438 662.695312 87.429688 663.328125 C 84.707031 663.574219 80.15625 664.441406 81.054688 674.316406 " fill-opacity="1" fill-rule="nonzero"/><path fill="#52b194" d="M 87.367188 642.636719 C 87.921875 648.695312 90.910156 654.144531 96.945312 653.59375 C 101.746094 653.160156 106.433594 648.800781 106.027344 644.332031 C 105.507812 638.609375 86.03125 627.957031 87.367188 642.636719 " fill-opacity="1" fill-rule="nonzero"/><path fill="#52b194" d="M 105.472656 666.5 C 105.890625 671.085938 109.605469 672.890625 112.746094 672.605469 C 115.285156 672.375 117.453125 670.78125 117.21875 668.183594 C 116.695312 662.472656 104.488281 655.660156 105.472656 666.5 " fill-opacity="1" fill-rule="nonzero"/><path fill="#f5cc2c" d="M 322.136719 728.027344 C 323.296875 710.183594 313.679688 699.660156 295.789062 699.199219 C 313.648438 700.375 324.179688 690.757812 324.640625 672.875 C 323.472656 690.726562 333.09375 701.253906 350.984375 701.703125 C 333.125 700.539062 322.589844 710.152344 322.136719 728.027344 " fill-opacity="1" fill-rule="nonzero"/><g clip-path="url(#id2)"><path fill="#f5cc2c" d="M 114.765625 527.6875 C 115.351562 510.582031 105.84375 500.789062 88.710938 500.875 C 105.832031 501.476562 115.628906 491.964844 115.546875 474.84375 C 114.949219 491.957031 124.464844 501.75 141.597656 501.65625 C 124.472656 501.066406 114.671875 510.570312 114.765625 527.6875 " fill-opacity="1" fill-rule="nonzero"/></g></svg>