<svg xmlns="http://www.w3.org/2000/svg" xmlns:xlink="http://www.w3.org/1999/xlink" width="1920" zoomAndPan="magnify" viewBox="0 0 1440 809.999993" height="1080" preserveAspectRatio="xMidYMid meet" version="1.0"><path fill="#ffbf00" d="M 907.285156 6.183594 C 951.648438 18.960938 977.25 65.257812 964.472656 109.609375 C 951.699219 153.957031 905.378906 179.546875 861.015625 166.773438 C 816.652344 154.003906 791.046875 107.699219 803.824219 63.351562 C 816.601562 19.011719 862.921875 -6.589844 907.285156 6.183594 " fill-opacity="1" fill-rule="evenodd"/><path fill="#ffcc00" d="M 908.191406 9.652344 C 947.824219 21.070312 970.699219 62.433594 959.285156 102.054688 C 947.867188 141.671875 906.488281 164.539062 866.855469 153.128906 C 827.21875 141.714844 804.34375 100.347656 815.761719 60.726562 C 827.175781 21.105469 868.558594 -1.761719 908.191406 9.652344 " fill-opacity="1" fill-rule="evenodd"/><path fill="#ffbf00" d="M 903.828125 11.414062 C 911.140625 13.523438 915.851562 19.453125 914.347656 24.664062 C 912.847656 29.890625 905.699219 32.40625 898.386719 30.300781 C 891.074219 28.195312 886.367188 22.265625 887.867188 17.050781 C 889.371094 11.824219 896.515625 9.3125 903.828125 11.414062 " fill-opacity="1" fill-rule="evenodd"/><path fill="#ffbf00" d="M 838.742188 72.40625 C 842.871094 84.253906 839.363281 96.242188 830.910156 99.1875 C 822.457031 102.128906 812.253906 94.914062 808.125 83.066406 C 803.996094 71.21875 807.5 59.222656 815.957031 56.289062 C 824.414062 53.339844 834.617188 60.554688 838.742188 72.40625 " fill-opacity="1" fill-rule="evenodd"/><path fill="#ffbf00" d="M 938.183594 35.09375 C 942.253906 39.316406 943.792969 44.425781 941.628906 46.519531 C 939.460938 48.605469 934.40625 46.875 930.335938 42.652344 C 926.261719 38.425781 924.71875 33.304688 926.886719 31.222656 C 929.054688 29.128906 934.109375 30.867188 938.183594 35.09375 " fill-opacity="1" fill-rule="evenodd"/><path fill="#ffbf00" d="M 844.082031 21.878906 C 840.457031 22.777344 837.890625 25.015625 838.351562 26.875 C 838.808594 28.742188 842.125 29.515625 845.753906 28.613281 C 849.378906 27.714844 851.945312 25.484375 851.488281 23.621094 C 851.023438 21.761719 847.710938 20.980469 844.082031 21.878906 " fill-opacity="1" fill-rule="evenodd"/><path fill="#ffbf00" d="M 930.492188 95.351562 C 939.402344 90.484375 949.449219 91.691406 952.921875 98.046875 C 956.398438 104.40625 951.992188 113.507812 943.074219 118.375 C 934.164062 123.246094 924.121094 122.039062 920.644531 115.6875 C 917.167969 109.328125 921.578125 100.226562 930.492188 95.351562 " fill-opacity="1" fill-rule="evenodd"/><path fill="#ffbf00" d="M 914.875 47.570312 C 924.527344 52.734375 929.394531 61.558594 925.75 67.269531 C 922.101562 72.984375 911.324219 73.429688 901.667969 68.269531 C 892.015625 63.105469 887.144531 54.28125 890.789062 48.570312 C 894.4375 42.855469 905.21875 42.410156 914.875 47.570312 " fill-opacity="1" fill-rule="evenodd"/><path fill="#ffbf00" d="M 879.957031 109.558594 C 899.089844 110.300781 914.171875 121.96875 913.636719 135.613281 C 913.105469 149.261719 897.164062 159.71875 878.03125 158.972656 C 858.902344 158.230469 843.820312 146.5625 844.351562 132.914062 C 844.882812 119.269531 860.824219 108.8125 879.957031 109.558594 " fill-opacity="1" fill-rule="evenodd"/><path fill="#d65222" d="M 1183.753906 509.851562 C 1208.644531 527.832031 1214.25 562.578125 1196.257812 587.457031 C 1178.277344 612.34375 1143.519531 617.9375 1118.628906 599.960938 C 1093.738281 581.980469 1088.136719 547.238281 1106.125 522.351562 C 1124.109375 497.46875 1158.867188 491.875 1183.753906 509.851562 " fill-opacity="1" fill-rule="evenodd"/><path fill="#ef6d3c" d="M 1183.550781 512.226562 C 1205.789062 528.289062 1210.789062 559.332031 1194.71875 581.5625 C 1178.652344 603.792969 1147.597656 608.792969 1125.359375 592.730469 C 1103.117188 576.667969 1098.117188 545.628906 1114.183594 523.394531 C 1130.253906 501.164062 1161.308594 496.167969 1183.550781 512.226562 " fill-opacity="1" fill-rule="evenodd"/><path fill="#d65222" d="M 1180.417969 512.347656 C 1184.519531 515.3125 1186.132812 520.085938 1184.015625 523.011719 C 1181.898438 525.9375 1176.863281 525.90625 1172.753906 522.945312 C 1168.652344 519.980469 1167.042969 515.207031 1169.15625 512.28125 C 1171.273438 509.355469 1176.316406 509.386719 1180.417969 512.347656 " fill-opacity="1" fill-rule="evenodd"/><path fill="#d65222" d="M 1125.941406 535.875 C 1125.859375 544.21875 1120.964844 550.9375 1115.007812 550.878906 C 1109.050781 550.816406 1104.289062 544.003906 1104.375 535.660156 C 1104.460938 527.3125 1109.355469 520.59375 1115.308594 520.65625 C 1121.265625 520.71875 1126.023438 527.53125 1125.941406 535.875 " fill-opacity="1" fill-rule="evenodd"/><path fill="#d65222" d="M 1196.585938 534.898438 C 1198.183594 538.460938 1198 542.007812 1196.167969 542.832031 C 1194.34375 543.648438 1191.566406 541.425781 1189.972656 537.863281 C 1188.375 534.300781 1188.558594 530.753906 1190.394531 529.9375 C 1192.214844 529.117188 1194.992188 531.335938 1196.585938 534.898438 " fill-opacity="1" fill-rule="evenodd"/><path fill="#d65222" d="M 1140.664062 505.453125 C 1138.191406 505.199219 1136.078125 506.023438 1135.949219 507.289062 C 1135.820312 508.558594 1137.71875 509.789062 1140.191406 510.046875 C 1142.664062 510.300781 1144.773438 509.472656 1144.90625 508.207031 C 1145.035156 506.941406 1143.136719 505.707031 1140.664062 505.453125 " fill-opacity="1" fill-rule="evenodd"/><path fill="#d65222" d="M 1178.199219 570.890625 C 1184.871094 569.847656 1190.894531 572.859375 1191.636719 577.621094 C 1192.375 582.382812 1187.570312 587.089844 1180.898438 588.132812 C 1174.214844 589.175781 1168.203125 586.160156 1167.460938 581.398438 C 1166.714844 576.636719 1171.527344 571.929688 1178.199219 570.890625 " fill-opacity="1" fill-rule="evenodd"/><path fill="#d65222" d="M 1180.417969 512.347656 C 1184.519531 515.3125 1186.132812 520.085938 1184.015625 523.011719 C 1181.898438 525.9375 1176.863281 525.90625 1172.753906 522.945312 C 1168.652344 519.980469 1167.042969 515.207031 1169.15625 512.28125 C 1171.273438 509.355469 1176.316406 509.386719 1180.417969 512.347656 " fill-opacity="1" fill-rule="evenodd"/><path fill="#d65222" d="M 1196.585938 534.898438 C 1198.183594 538.460938 1198 542.007812 1196.167969 542.832031 C 1194.34375 543.648438 1191.566406 541.425781 1189.972656 537.863281 C 1188.375 534.300781 1188.558594 530.753906 1190.394531 529.9375 C 1192.214844 529.117188 1194.992188 531.335938 1196.585938 534.898438 " fill-opacity="1" fill-rule="evenodd"/><path fill="#d65222" d="M 1178.199219 570.890625 C 1184.871094 569.847656 1190.894531 572.859375 1191.636719 577.621094 C 1192.375 582.382812 1187.570312 587.089844 1180.898438 588.132812 C 1174.214844 589.175781 1168.203125 586.160156 1167.460938 581.398438 C 1166.714844 576.636719 1171.527344 571.929688 1178.199219 570.890625 " fill-opacity="1" fill-rule="evenodd"/><path fill="#d65222" d="M 1167.230469 557.503906 C 1165.117188 564.707031 1159.878906 569.214844 1155.527344 567.570312 C 1151.171875 565.929688 1149.359375 558.753906 1151.472656 551.546875 C 1153.582031 544.34375 1158.828125 539.832031 1163.179688 541.480469 C 1167.527344 543.125 1169.34375 550.296875 1167.230469 557.503906 " fill-opacity="1" fill-rule="evenodd"/><path fill="#d65222" d="M 1141.574219 572.851562 C 1149.941406 576.230469 1154.765625 583.8125 1152.355469 589.777344 C 1149.941406 595.746094 1141.199219 597.84375 1132.835938 594.460938 C 1124.46875 591.078125 1119.640625 583.5 1122.054688 577.535156 C 1124.46875 571.566406 1133.207031 569.46875 1141.574219 572.851562 " fill-opacity="1" fill-rule="evenodd"/><path fill="#d65222" d="M 1188.59375 580.035156 C 1191.78125 577.515625 1192.898438 573.628906 1191.097656 571.363281 C 1189.300781 569.089844 1185.269531 569.292969 1182.082031 571.8125 C 1178.90625 574.332031 1177.777344 578.21875 1179.578125 580.484375 C 1181.375 582.757812 1185.417969 582.554688 1188.59375 580.035156 " fill-opacity="1" fill-rule="evenodd"/><path fill="#d65222" d="M 1143.195312 553.800781 C 1142.832031 547.117188 1138.671875 541.910156 1133.902344 542.167969 C 1129.128906 542.425781 1125.558594 548.054688 1125.917969 554.738281 C 1126.28125 561.421875 1130.441406 566.632812 1135.214844 566.375 C 1139.980469 566.117188 1143.558594 560.488281 1143.195312 553.800781 " fill-opacity="1" fill-rule="evenodd"/><path fill="#d65222" d="M 1200.753906 561.390625 C 1201.90625 558.480469 1201.628906 555.640625 1200.140625 555.046875 C 1198.648438 554.457031 1196.507812 556.339844 1195.34375 559.246094 C 1194.199219 562.160156 1194.46875 564.996094 1195.960938 565.585938 C 1197.453125 566.179688 1199.605469 564.300781 1200.753906 561.390625 " fill-opacity="1" fill-rule="evenodd"/><path fill="#d65222" d="M 1168.398438 595.574219 C 1166.429688 595.863281 1164.707031 595.277344 1164.558594 594.265625 C 1164.410156 593.25 1165.886719 592.199219 1167.863281 591.910156 C 1169.835938 591.613281 1171.558594 592.203125 1171.710938 593.210938 C 1171.855469 594.226562 1170.375 595.277344 1168.398438 595.574219 " fill-opacity="1" fill-rule="evenodd"/><path fill="#d65222" d="M 1182.980469 541.34375 C 1182.386719 537.027344 1179.78125 533.992188 1177.140625 534.554688 C 1174.496094 535.117188 1172.835938 539.078125 1173.425781 543.390625 C 1174.007812 547.707031 1176.613281 550.746094 1179.257812 550.179688 C 1181.898438 549.617188 1183.5625 545.65625 1182.980469 541.34375 " fill-opacity="1" fill-rule="evenodd"/><path fill="#d65222" d="M 1156.925781 536.417969 C 1166.214844 532.175781 1171.296875 523.363281 1168.269531 516.734375 C 1165.242188 510.109375 1155.25 508.171875 1145.960938 512.414062 C 1136.664062 516.65625 1131.585938 525.46875 1134.613281 532.097656 C 1137.636719 538.726562 1147.628906 540.660156 1156.925781 536.417969 " fill-opacity="1" fill-rule="evenodd"/><path fill="#71e8fa" d="M 637.46875 412.777344 L 585.972656 440.859375 C 582.082031 442.980469 577.164062 441.535156 575.035156 437.644531 C 573.007812 433.921875 574.242188 429.265625 577.75 427.003906 C 583.210938 423.492188 586.3125 417.988281 586.480469 411.496094 C 586.9375 393.914062 596.492188 377.054688 613.042969 368.023438 C 629.597656 358.996094 648.953125 360.097656 663.984375 369.226562 C 669.535156 372.597656 675.847656 372.972656 681.757812 370.28125 C 685.558594 368.558594 690.144531 370.042969 692.175781 373.757812 C 694.296875 377.648438 692.851562 382.570312 688.960938 384.691406 L 637.46875 412.777344 " fill-opacity="1" fill-rule="evenodd"/><path fill="#3d90ba" d="M 581.984375 448.945312 L 697.921875 385.714844 C 703.90625 382.457031 706.128906 374.898438 702.863281 368.917969 C 699.601562 362.941406 692.039062 360.71875 686.0625 363.976562 L 570.117188 427.207031 C 564.140625 430.46875 561.914062 438.027344 565.179688 444.007812 C 568.441406 449.988281 576 452.207031 581.984375 448.945312 " fill-opacity="1" fill-rule="evenodd"/><path fill="#71e8fa" d="M 612.375 410.074219 C 615.863281 408.167969 620.234375 409.453125 622.140625 412.941406 C 624.042969 416.429688 622.757812 420.800781 619.265625 422.699219 C 615.777344 424.601562 611.40625 423.316406 609.503906 419.832031 C 607.605469 416.347656 608.886719 411.976562 612.375 410.074219 Z M 648.773438 390.222656 C 652.265625 388.320312 656.632812 389.605469 658.535156 393.09375 C 660.441406 396.578125 659.15625 400.949219 655.667969 402.851562 C 652.175781 404.753906 647.808594 403.46875 645.90625 399.984375 C 644 396.496094 645.285156 392.128906 648.773438 390.222656 Z M 685.171875 370.371094 C 688.664062 368.472656 693.03125 369.753906 694.933594 373.242188 C 696.835938 376.730469 695.550781 381.101562 692.066406 383.003906 C 688.578125 384.902344 684.207031 383.621094 682.300781 380.128906 C 680.398438 376.644531 681.683594 372.273438 685.171875 370.371094 Z M 575.980469 429.925781 C 579.464844 428.023438 583.839844 429.308594 585.738281 432.792969 C 587.644531 436.277344 586.355469 440.648438 582.871094 442.550781 C 579.382812 444.457031 575.011719 443.171875 573.105469 439.683594 C 571.203125 436.195312 572.488281 431.828125 575.980469 429.925781 " fill-opacity="1" fill-rule="evenodd"/><path fill="#33799c" d="M 606.300781 442.792969 L 597.660156 447.5 C 594.359375 441.453125 595.550781 434.441406 600.324219 431.835938 C 605.09375 429.234375 611.636719 432.027344 614.941406 438.078125 L 606.300781 442.792969 " fill-opacity="1" fill-rule="evenodd"/><path fill="#33799c" d="M 642.941406 422.804688 L 634.300781 427.519531 C 631 421.472656 632.191406 414.457031 636.964844 411.855469 C 641.738281 409.253906 648.285156 412.046875 651.582031 418.097656 L 642.941406 422.804688 " fill-opacity="1" fill-rule="evenodd"/><path fill="#33799c" d="M 679.585938 402.824219 L 670.941406 407.539062 C 667.640625 401.492188 668.832031 394.476562 673.605469 391.875 C 678.378906 389.269531 684.921875 392.066406 688.226562 398.113281 L 679.585938 402.824219 " fill-opacity="1" fill-rule="evenodd"/><path fill="#d65222" d="M 375.308594 -31.253906 C 425.117188 -28.328125 463.128906 14.386719 460.214844 64.183594 C 457.296875 113.972656 414.550781 151.976562 364.738281 149.058594 C 314.933594 146.144531 276.914062 103.414062 279.839844 53.625 C 282.75 3.824219 325.496094 -34.171875 375.308594 -31.253906 " fill-opacity="1" fill-rule="evenodd"/><path fill="#ef6d3c" d="M 377.085938 -27.816406 C 421.589844 -25.210938 455.550781 12.964844 452.945312 57.449219 C 450.339844 101.933594 412.148438 135.886719 367.648438 133.28125 C 323.148438 130.675781 289.1875 92.5 291.792969 48.011719 C 294.402344 3.527344 332.585938 -30.425781 377.085938 -27.816406 " fill-opacity="1" fill-rule="evenodd"/><path fill="#d65222" d="M 318.800781 54.851562 C 325.972656 66.371094 325.125 79.835938 316.914062 84.957031 C 308.699219 90.070312 296.230469 84.886719 289.058594 73.382812 C 281.882812 61.878906 282.730469 48.398438 290.945312 43.277344 C 299.15625 38.164062 311.632812 43.34375 318.800781 54.851562 " fill-opacity="1" fill-rule="evenodd"/><path fill="#d65222" d="M 414.761719 -8.125 C 420.058594 -4.644531 422.902344 0.390625 421.113281 3.105469 C 419.324219 5.816406 413.582031 5.191406 408.28125 1.710938 C 402.984375 -1.777344 400.140625 -6.804688 401.929688 -9.515625 C 403.714844 -12.234375 409.464844 -11.613281 414.761719 -8.125 " fill-opacity="1" fill-rule="evenodd"/><path fill="#d65222" d="M 312.40625 0.316406 C 308.796875 2.140625 306.625 5.097656 307.554688 6.957031 C 308.484375 8.808594 312.160156 8.847656 315.773438 7.035156 C 319.382812 5.214844 321.554688 2.253906 320.625 0.398438 C 319.699219 -1.457031 316.015625 -1.492188 312.40625 0.316406 " fill-opacity="1" fill-rule="evenodd"/><path fill="#d65222" d="M 420.992188 57.242188 C 429.230469 49.980469 440.105469 48.867188 445.28125 54.742188 C 450.460938 60.613281 447.976562 71.269531 439.738281 78.515625 C 431.503906 85.765625 420.625 86.886719 415.449219 81.007812 C 410.273438 75.136719 412.75 64.492188 420.992188 57.242188 " fill-opacity="1" fill-rule="evenodd"/><path fill="#d65222" d="M 414.761719 -8.125 C 420.058594 -4.644531 422.902344 0.390625 421.113281 3.105469 C 419.324219 5.816406 413.582031 5.191406 408.28125 1.710938 C 402.984375 -1.777344 400.140625 -6.804688 401.929688 -9.515625 C 403.714844 -12.234375 409.464844 -11.613281 414.761719 -8.125 " fill-opacity="1" fill-rule="evenodd"/><path fill="#d65222" d="M 420.992188 57.242188 C 429.230469 49.980469 440.105469 48.867188 445.28125 54.742188 C 450.460938 60.613281 447.976562 71.269531 439.738281 78.515625 C 431.503906 85.765625 420.625 86.886719 415.449219 81.007812 C 410.273438 75.136719 412.75 64.492188 420.992188 57.242188 " fill-opacity="1" fill-rule="evenodd"/><path fill="#d65222" d="M 394.269531 48.46875 C 397.664062 60.179688 394.421875 70.933594 387.019531 72.484375 C 379.621094 74.019531 370.867188 65.769531 367.476562 54.054688 C 364.078125 42.332031 367.320312 31.589844 374.722656 30.035156 C 382.121094 28.503906 390.871094 36.742188 394.269531 48.46875 " fill-opacity="1" fill-rule="evenodd"/><path fill="#d65222" d="M 372.515625 91.886719 C 386.929688 89.21875 400.167969 95.394531 402.066406 105.679688 C 403.96875 115.957031 393.824219 126.460938 379.410156 129.128906 C 364.988281 131.796875 351.757812 125.621094 349.851562 115.335938 C 347.949219 105.050781 358.09375 94.554688 372.515625 91.886719 " fill-opacity="1" fill-rule="evenodd"/><path fill="#d65222" d="M 443.222656 60.703125 C 445.382812 54.464844 443.53125 48.167969 439.082031 46.621094 C 434.636719 45.085938 429.277344 48.890625 427.117188 55.113281 C 424.957031 61.351562 426.808594 67.648438 431.253906 69.195312 C 435.703125 70.730469 441.0625 66.929688 443.222656 60.703125 " fill-opacity="1" fill-rule="evenodd"/><path fill="#d65222" d="M 358.097656 64.367188 C 351.765625 55.523438 341.511719 52.019531 335.203125 56.539062 C 328.890625 61.054688 328.90625 71.882812 335.242188 80.726562 C 341.574219 89.570312 351.828125 93.078125 358.140625 88.558594 C 364.449219 84.039062 364.433594 73.210938 358.097656 64.367188 " fill-opacity="1" fill-rule="evenodd"/><path fill="#d65222" d="M 443.605469 24.542969 C 442.644531 19.542969 439.789062 15.890625 437.226562 16.378906 C 434.664062 16.878906 433.367188 21.316406 434.328125 26.316406 C 435.285156 31.3125 438.140625 34.96875 440.699219 34.464844 C 443.265625 33.976562 444.566406 29.527344 443.605469 24.542969 " fill-opacity="1" fill-rule="evenodd"/><path fill="#d65222" d="M 429.113281 99.613281 C 426.667969 101.730469 423.800781 102.433594 422.710938 101.171875 C 421.625 99.917969 422.726562 97.179688 425.179688 95.0625 C 427.628906 92.945312 430.492188 92.242188 431.582031 93.5 C 432.667969 94.753906 431.566406 97.492188 429.113281 99.613281 " fill-opacity="1" fill-rule="evenodd"/><path fill="#d65222" d="M 401.734375 12.578125 C 397.164062 7.183594 390.925781 5.292969 387.800781 8.378906 C 384.683594 11.453125 385.859375 18.324219 390.429688 23.722656 C 395 29.128906 401.234375 31.019531 404.355469 27.933594 C 407.480469 24.863281 406.304688 17.984375 401.734375 12.578125 " fill-opacity="1" fill-rule="evenodd"/><path fill="#d65222" d="M 361.734375 28.570312 C 370.761719 14.648438 370.027344 -1.863281 360.089844 -8.308594 C 350.15625 -14.75 334.777344 -8.6875 325.746094 5.25 C 316.714844 19.171875 317.449219 35.675781 327.386719 42.117188 C 337.324219 48.554688 352.699219 42.492188 361.734375 28.570312 " fill-opacity="1" fill-rule="evenodd"/><path fill="#ff6600" d="M 1148.96875 -37.9375 C 1140.253906 -35 1132.664062 -28.738281 1128.257812 -19.851562 C 1123.855469 -10.972656 1123.46875 -1.136719 1126.40625 7.570312 C 1129.34375 16.277344 1135.605469 23.855469 1144.492188 28.261719 C 1153.382812 32.667969 1163.214844 33.054688 1171.921875 30.117188 C 1180.636719 27.183594 1188.230469 20.921875 1192.636719 12.042969 C 1197.042969 3.15625 1197.417969 -6.679688 1194.480469 -15.390625 C 1191.542969 -24.097656 1185.292969 -31.675781 1176.398438 -36.085938 C 1167.511719 -40.484375 1157.675781 -40.871094 1148.96875 -37.9375 Z M 1126.105469 -20.921875 C 1130.800781 -30.402344 1138.902344 -37.085938 1148.199219 -40.214844 C 1157.492188 -43.34375 1167.984375 -42.9375 1177.46875 -38.246094 C 1186.953125 -33.546875 1193.628906 -25.441406 1196.769531 -16.152344 C 1199.898438 -6.863281 1199.492188 3.628906 1194.789062 13.101562 C 1190.082031 22.585938 1181.988281 29.261719 1172.695312 32.394531 C 1163.402344 35.539062 1152.90625 35.128906 1143.425781 30.425781 C 1133.941406 25.722656 1127.261719 17.632812 1124.125 8.332031 C 1120.988281 -0.957031 1121.402344 -11.4375 1126.105469 -20.921875 " fill-opacity="1" fill-rule="evenodd"/><path fill="#ffbf00" d="M 1160.445312 -3.90625 L 1131.566406 -18.210938 C 1139.472656 -34.160156 1158.808594 -40.679688 1174.761719 -32.78125 C 1190.710938 -24.882812 1197.234375 -5.542969 1189.324219 10.402344 L 1160.445312 -3.90625 " fill-opacity="1" fill-rule="evenodd"/><path fill="#ffbf00" d="M 1160.445312 -3.90625 L 1131.566406 -18.210938 C 1123.660156 -2.273438 1130.183594 17.0625 1146.132812 24.964844 C 1162.078125 32.859375 1181.417969 26.335938 1189.324219 10.402344 L 1160.445312 -3.90625 " fill-opacity="1" fill-rule="evenodd"/><path fill="#ff6600" d="M 1115.691406 -33.648438 L 1211.21875 13.683594 C 1214.554688 15.34375 1215.945312 19.417969 1214.28125 22.765625 C 1212.628906 26.101562 1208.542969 27.476562 1205.199219 25.828125 L 1109.675781 -21.5 C 1106.328125 -23.152344 1104.949219 -27.242188 1106.609375 -30.582031 C 1108.265625 -33.917969 1112.351562 -35.296875 1115.691406 -33.648438 " fill-opacity="1" fill-rule="evenodd"/><path fill="#4d4d4d" d="M 94.625 366.515625 C 92.757812 364.085938 89.242188 363.621094 86.8125 365.484375 L 38.738281 402.316406 C 36.3125 404.179688 35.84375 407.695312 37.707031 410.121094 C 39.570312 412.554688 43.085938 413.015625 45.519531 411.15625 L 93.585938 374.324219 C 96.019531 372.460938 96.488281 368.949219 94.625 366.515625 " fill-opacity="1" fill-rule="evenodd"/><path fill="#4d4d4d" d="M 64.957031 327.824219 C 63.09375 325.398438 59.578125 324.933594 57.144531 326.792969 L 9.078125 363.625 C 6.644531 365.488281 6.179688 369 8.042969 371.429688 L 8.042969 371.433594 C 9.910156 373.863281 13.421875 374.328125 15.851562 372.464844 L 63.921875 335.632812 C 66.355469 333.769531 66.820312 330.257812 64.957031 327.824219 " fill-opacity="1" fill-rule="evenodd"/><path fill="#808080" d="M 109.351562 324.519531 C 97.984375 309.707031 76.765625 306.898438 61.945312 318.257812 C 47.121094 329.613281 44.316406 350.828125 55.675781 365.644531 C 67.03125 380.464844 88.257812 383.269531 103.082031 371.910156 C 117.902344 360.554688 120.710938 339.339844 109.351562 324.519531 " fill-opacity="1" fill-rule="evenodd"/><path fill="#999999" d="M 107.253906 326.125 C 99.066406 315.441406 83.761719 313.417969 73.074219 321.609375 C 62.382812 329.792969 60.359375 345.09375 68.554688 355.777344 C 76.746094 366.460938 92.050781 368.484375 102.742188 360.296875 C 113.425781 352.109375 115.449219 336.808594 107.253906 326.125 " fill-opacity="1" fill-rule="evenodd"/><path fill="#666666" d="M 63.949219 359.308594 C 62.085938 356.875 58.574219 356.414062 56.140625 358.277344 L 8.070312 395.105469 C 5.636719 396.96875 5.175781 400.480469 7.035156 402.914062 C 8.898438 405.347656 12.414062 405.808594 14.84375 403.945312 L 62.914062 367.113281 C 65.347656 365.25 65.8125 361.738281 63.949219 359.308594 " fill-opacity="1" fill-rule="evenodd"/><path fill="#ffcc00" d="M 1055.664062 194.765625 C 1062.46875 194.765625 1068.019531 189.214844 1068.019531 182.414062 C 1068.019531 175.609375 1062.46875 170.058594 1055.664062 170.058594 C 1048.863281 170.058594 1043.3125 175.609375 1043.3125 182.414062 C 1043.3125 189.214844 1048.863281 194.765625 1055.664062 194.765625 " fill-opacity="1" fill-rule="evenodd"/><path fill="#ffbf00" d="M 805.992188 580.402344 L 806.21875 585.636719 C 806.238281 586.023438 806.394531 586.347656 806.679688 586.601562 C 806.96875 586.859375 807.304688 586.972656 807.691406 586.945312 L 812.917969 586.589844 C 813.519531 586.550781 814.058594 586.878906 814.289062 587.441406 C 814.515625 587.996094 814.375 588.609375 813.921875 589.003906 L 809.96875 592.445312 C 809.679688 592.699219 809.519531 593.019531 809.503906 593.40625 C 809.476562 593.792969 809.601562 594.132812 809.859375 594.417969 L 813.398438 598.277344 C 813.804688 598.71875 813.878906 599.347656 813.589844 599.875 C 813.296875 600.402344 812.726562 600.671875 812.132812 600.566406 L 806.980469 599.621094 C 806.601562 599.554688 806.25 599.632812 805.9375 599.855469 C 805.621094 600.082031 805.433594 600.386719 805.371094 600.765625 L 804.558594 605.9375 C 804.464844 606.53125 804.019531 606.980469 803.425781 607.082031 C 802.832031 607.183594 802.265625 606.90625 801.980469 606.375 L 799.503906 601.761719 C 799.320312 601.421875 799.042969 601.195312 798.667969 601.089844 C 798.300781 600.984375 797.941406 601.027344 797.605469 601.214844 L 793.054688 603.808594 C 792.53125 604.105469 791.902344 604.039062 791.453125 603.636719 C 791.003906 603.234375 790.867188 602.621094 791.105469 602.0625 L 793.167969 597.253906 C 793.320312 596.898438 793.320312 596.539062 793.175781 596.179688 C 793.027344 595.824219 792.769531 595.574219 792.414062 595.429688 L 787.546875 593.488281 C 786.988281 593.261719 786.648438 592.730469 786.683594 592.125 C 786.722656 591.527344 787.117188 591.039062 787.695312 590.878906 L 792.746094 589.488281 C 793.117188 589.386719 793.402344 589.164062 793.589844 588.828125 C 793.773438 588.488281 793.8125 588.128906 793.699219 587.761719 L 792.1875 582.75 C 792.015625 582.171875 792.21875 581.574219 792.710938 581.230469 C 793.203125 580.878906 793.832031 580.882812 794.324219 581.238281 L 798.558594 584.320312 C 798.867188 584.546875 799.21875 584.625 799.597656 584.5625 C 799.980469 584.496094 800.28125 584.304688 800.5 583.984375 L 803.480469 579.679688 C 803.824219 579.183594 804.417969 578.972656 804.996094 579.140625 C 805.574219 579.308594 805.960938 579.800781 805.992188 580.402344 " fill-opacity="1" fill-rule="evenodd"/><path fill="#ffcc00" d="M 272.453125 196.832031 L 281.15625 210.910156 C 281.796875 211.945312 282.71875 212.601562 283.914062 212.871094 C 285.101562 213.132812 286.214844 212.933594 287.238281 212.265625 L 301.105469 203.230469 C 302.695312 202.1875 304.6875 202.277344 306.179688 203.457031 C 307.675781 204.636719 308.226562 206.554688 307.585938 208.347656 L 301.996094 223.917969 C 301.589844 225.066406 301.652344 226.203125 302.183594 227.296875 C 302.71875 228.390625 303.570312 229.144531 304.730469 229.523438 L 320.441406 234.722656 C 322.25 235.320312 323.421875 236.933594 323.433594 238.835938 C 323.4375 240.738281 322.28125 242.363281 320.480469 242.980469 L 304.816406 248.324219 C 303.664062 248.71875 302.816406 249.476562 302.292969 250.574219 C 301.765625 251.671875 301.71875 252.8125 302.140625 253.953125 L 307.867188 269.472656 C 308.527344 271.257812 307.996094 273.179688 306.511719 274.375 C 305.03125 275.566406 303.042969 275.679688 301.4375 274.652344 L 287.488281 265.746094 C 286.460938 265.085938 285.34375 264.894531 284.15625 265.171875 C 282.96875 265.453125 282.046875 266.117188 281.417969 267.160156 L 272.851562 281.316406 C 271.867188 282.941406 270.03125 283.726562 268.175781 283.3125 C 266.316406 282.898438 264.992188 281.410156 264.789062 279.515625 L 263.0625 263.0625 C 262.9375 261.851562 262.382812 260.855469 261.429688 260.097656 C 260.472656 259.347656 259.378906 259.039062 258.167969 259.199219 L 241.753906 261.328125 C 239.863281 261.574219 238.113281 260.628906 237.28125 258.917969 C 236.445312 257.207031 236.78125 255.242188 238.140625 253.910156 L 249.925781 242.296875 C 250.796875 241.441406 251.234375 240.390625 251.230469 239.175781 C 251.21875 237.957031 250.777344 236.910156 249.898438 236.066406 L 238 224.566406 C 236.632812 223.242188 236.277344 221.28125 237.09375 219.566406 C 237.914062 217.84375 239.65625 216.882812 241.546875 217.109375 L 257.980469 219.085938 C 259.191406 219.230469 260.285156 218.917969 261.234375 218.152344 C 262.183594 217.390625 262.722656 216.390625 262.839844 215.175781 L 264.414062 198.707031 C 264.589844 196.8125 265.902344 195.316406 267.757812 194.878906 C 269.613281 194.449219 271.453125 195.214844 272.453125 196.832031 " fill-opacity="1" fill-rule="evenodd"/><path fill="#ffcc00" d="M 1109.410156 298.222656 L 1115.179688 307.550781 C 1115.601562 308.238281 1116.21875 308.675781 1117.003906 308.851562 C 1117.796875 309.027344 1118.535156 308.890625 1119.214844 308.453125 L 1128.398438 302.457031 C 1129.457031 301.769531 1130.773438 301.832031 1131.765625 302.613281 C 1132.757812 303.390625 1133.125 304.664062 1132.695312 305.851562 L 1128.996094 316.175781 C 1128.726562 316.933594 1128.765625 317.6875 1129.117188 318.410156 C 1129.472656 319.140625 1130.042969 319.632812 1130.804688 319.886719 L 1141.21875 323.332031 C 1142.417969 323.730469 1143.195312 324.800781 1143.199219 326.0625 C 1143.207031 327.320312 1142.4375 328.398438 1141.246094 328.808594 L 1130.863281 332.351562 C 1130.097656 332.613281 1129.539062 333.109375 1129.191406 333.839844 C 1128.84375 334.570312 1128.808594 335.320312 1129.089844 336.082031 L 1132.886719 346.367188 C 1133.324219 347.550781 1132.972656 348.824219 1131.988281 349.617188 C 1131.007812 350.40625 1129.683594 350.476562 1128.621094 349.796875 L 1119.378906 343.898438 C 1118.699219 343.457031 1117.957031 343.332031 1117.167969 343.515625 C 1116.382812 343.699219 1115.773438 344.140625 1115.355469 344.832031 L 1109.679688 354.21875 C 1109.023438 355.292969 1107.804688 355.8125 1106.578125 355.539062 C 1105.347656 355.261719 1104.464844 354.277344 1104.332031 353.023438 L 1103.1875 342.121094 C 1103.105469 341.316406 1102.738281 340.65625 1102.105469 340.152344 C 1101.472656 339.65625 1100.742188 339.453125 1099.941406 339.558594 L 1089.066406 340.96875 C 1087.816406 341.132812 1086.652344 340.503906 1086.101562 339.371094 C 1085.542969 338.238281 1085.769531 336.933594 1086.667969 336.050781 L 1094.484375 328.351562 C 1095.058594 327.789062 1095.347656 327.089844 1095.34375 326.285156 C 1095.339844 325.476562 1095.046875 324.78125 1094.460938 324.222656 L 1086.578125 316.601562 C 1085.667969 315.726562 1085.433594 314.421875 1085.976562 313.285156 C 1086.519531 312.148438 1087.675781 311.511719 1088.929688 311.660156 L 1099.820312 312.96875 C 1100.621094 313.066406 1101.347656 312.859375 1101.976562 312.351562 C 1102.605469 311.84375 1102.960938 311.183594 1103.039062 310.378906 L 1104.082031 299.464844 C 1104.203125 298.207031 1105.074219 297.210938 1106.304688 296.925781 C 1107.53125 296.640625 1108.75 297.148438 1109.410156 298.222656 " fill-opacity="1" fill-rule="evenodd"/><path fill="#ffcc00" d="M 1320.019531 608.476562 L 1325.792969 617.804688 C 1326.210938 618.492188 1326.828125 618.929688 1327.613281 619.101562 C 1328.398438 619.28125 1329.152344 619.148438 1329.824219 618.707031 L 1339.011719 612.71875 C 1340.070312 612.023438 1341.390625 612.085938 1342.378906 612.867188 C 1343.371094 613.648438 1343.726562 614.917969 1343.304688 616.105469 L 1339.605469 626.429688 C 1339.328125 627.191406 1339.378906 627.941406 1339.730469 628.667969 C 1340.078125 629.390625 1340.648438 629.890625 1341.414062 630.140625 L 1351.832031 633.589844 C 1353.027344 633.984375 1353.800781 635.054688 1353.816406 636.320312 C 1353.816406 637.578125 1353.050781 638.652344 1351.855469 639.0625 L 1341.472656 642.605469 C 1340.707031 642.863281 1340.152344 643.367188 1339.796875 644.09375 C 1339.457031 644.824219 1339.421875 645.582031 1339.691406 646.335938 L 1343.496094 656.621094 C 1343.933594 657.808594 1343.574219 659.078125 1342.597656 659.871094 C 1341.617188 660.660156 1340.296875 660.734375 1339.226562 660.054688 L 1329.992188 654.148438 C 1329.3125 653.71875 1328.570312 653.585938 1327.773438 653.769531 C 1326.984375 653.957031 1326.386719 654.398438 1325.960938 655.089844 L 1320.28125 664.472656 C 1319.632812 665.554688 1318.414062 666.070312 1317.183594 665.792969 C 1315.953125 665.523438 1315.078125 664.535156 1314.941406 663.28125 L 1313.800781 652.375 C 1313.707031 651.570312 1313.34375 650.910156 1312.722656 650.410156 C 1312.082031 649.910156 1311.351562 649.710938 1310.554688 649.8125 L 1299.671875 651.222656 C 1298.417969 651.386719 1297.253906 650.761719 1296.707031 649.625 C 1296.152344 648.492188 1296.378906 647.191406 1297.277344 646.304688 L 1305.089844 638.613281 C 1305.671875 638.042969 1305.957031 637.34375 1305.957031 636.539062 C 1305.941406 635.730469 1305.648438 635.039062 1305.066406 634.476562 L 1297.1875 626.855469 C 1296.277344 625.980469 1296.035156 624.683594 1296.582031 623.539062 C 1297.132812 622.402344 1298.28125 621.765625 1299.53125 621.917969 L 1310.429688 623.222656 C 1311.226562 623.320312 1311.957031 623.113281 1312.582031 622.605469 C 1313.210938 622.105469 1313.574219 621.4375 1313.65625 620.636719 L 1314.691406 609.71875 C 1314.816406 608.460938 1315.679688 607.472656 1316.910156 607.183594 C 1318.136719 606.898438 1319.355469 607.402344 1320.019531 608.476562 " fill-opacity="1" fill-rule="evenodd"/><path fill="#ffcc00" d="M 1388.757812 499.957031 L 1386.09375 504.273438 C 1385.890625 504.59375 1385.605469 504.792969 1385.238281 504.875 C 1384.875 504.957031 1384.535156 504.894531 1384.226562 504.691406 L 1379.980469 501.917969 C 1379.492188 501.597656 1378.875 501.625 1378.421875 501.992188 C 1377.960938 502.351562 1377.792969 502.9375 1377.988281 503.488281 L 1379.699219 508.265625 C 1379.820312 508.617188 1379.808594 508.960938 1379.640625 509.300781 C 1379.480469 509.632812 1379.21875 509.867188 1378.867188 509.980469 L 1374.046875 511.578125 C 1373.488281 511.757812 1373.125 512.253906 1373.125 512.839844 C 1373.125 513.421875 1373.480469 513.921875 1374.035156 514.105469 L 1378.832031 515.746094 C 1379.179688 515.867188 1379.445312 516.097656 1379.605469 516.4375 C 1379.777344 516.773438 1379.785156 517.121094 1379.660156 517.472656 L 1377.894531 522.230469 C 1377.703125 522.777344 1377.859375 523.367188 1378.320312 523.734375 C 1378.773438 524.101562 1379.378906 524.132812 1379.867188 523.816406 L 1384.148438 521.085938 C 1384.464844 520.886719 1384.808594 520.828125 1385.171875 520.914062 C 1385.539062 521 1385.820312 521.203125 1386.011719 521.523438 L 1388.632812 525.863281 C 1388.941406 526.359375 1389.5 526.601562 1390.070312 526.476562 C 1390.640625 526.347656 1391.046875 525.894531 1391.105469 525.3125 L 1391.640625 520.265625 C 1391.675781 519.894531 1391.84375 519.589844 1392.144531 519.359375 C 1392.4375 519.128906 1392.765625 519.035156 1393.144531 519.082031 L 1398.175781 519.734375 C 1398.757812 519.8125 1399.289062 519.523438 1399.542969 518.992188 C 1399.804688 518.46875 1399.703125 517.867188 1399.28125 517.460938 L 1395.667969 513.898438 C 1395.398438 513.636719 1395.273438 513.316406 1395.273438 512.941406 C 1395.273438 512.570312 1395.40625 512.25 1395.667969 511.984375 L 1399.324219 508.460938 C 1399.75 508.054688 1399.851562 507.457031 1399.597656 506.925781 C 1399.347656 506.402344 1398.816406 506.105469 1398.230469 506.175781 L 1393.203125 506.78125 C 1392.824219 506.824219 1392.492188 506.730469 1392.195312 506.496094 C 1391.910156 506.257812 1391.742188 505.953125 1391.707031 505.582031 L 1391.230469 500.53125 C 1391.171875 499.949219 1390.765625 499.492188 1390.203125 499.359375 C 1389.632812 499.226562 1389.066406 499.460938 1388.757812 499.957031 " fill-opacity="1" fill-rule="evenodd"/><path fill="#ffcc00" d="M 1410.371094 574.617188 L 1408.550781 577.550781 C 1408.421875 577.769531 1408.230469 577.90625 1407.980469 577.960938 C 1407.726562 578.019531 1407.5 577.972656 1407.285156 577.835938 L 1404.390625 575.949219 C 1404.0625 575.734375 1403.640625 575.75 1403.332031 576 C 1403.027344 576.246094 1402.910156 576.644531 1403.039062 577.019531 L 1404.210938 580.265625 C 1404.289062 580.503906 1404.28125 580.738281 1404.164062 580.972656 C 1404.050781 581.199219 1403.878906 581.351562 1403.640625 581.433594 L 1400.363281 582.519531 C 1399.988281 582.640625 1399.734375 582.980469 1399.734375 583.375 C 1399.734375 583.773438 1399.976562 584.113281 1400.347656 584.238281 L 1403.617188 585.355469 C 1403.859375 585.4375 1404.039062 585.59375 1404.144531 585.824219 C 1404.257812 586.054688 1404.269531 586.292969 1404.179688 586.527344 L 1402.980469 589.765625 C 1402.84375 590.140625 1402.960938 590.539062 1403.265625 590.789062 C 1403.574219 591.039062 1403.996094 591.058594 1404.324219 590.847656 L 1407.230469 588.988281 C 1407.445312 588.855469 1407.683594 588.8125 1407.925781 588.871094 C 1408.171875 588.929688 1408.367188 589.066406 1408.503906 589.285156 L 1410.28125 592.238281 C 1410.496094 592.574219 1410.871094 592.738281 1411.261719 592.65625 C 1411.648438 592.566406 1411.929688 592.253906 1411.96875 591.863281 L 1412.332031 588.429688 C 1412.355469 588.179688 1412.464844 587.96875 1412.667969 587.8125 C 1412.867188 587.652344 1413.09375 587.589844 1413.339844 587.625 L 1416.769531 588.066406 C 1417.171875 588.121094 1417.53125 587.921875 1417.703125 587.566406 C 1417.875 587.207031 1417.808594 586.800781 1417.523438 586.519531 L 1415.0625 584.101562 C 1414.878906 583.917969 1414.792969 583.699219 1414.800781 583.449219 C 1414.800781 583.195312 1414.894531 582.976562 1415.074219 582.796875 L 1417.558594 580.402344 C 1417.84375 580.125 1417.921875 579.71875 1417.742188 579.355469 C 1417.582031 579 1417.214844 578.796875 1416.816406 578.84375 L 1413.390625 579.257812 C 1413.136719 579.289062 1412.910156 579.222656 1412.707031 579.0625 C 1412.515625 578.902344 1412.398438 578.695312 1412.375 578.441406 L 1412.046875 575.007812 C 1412.011719 574.613281 1411.734375 574.300781 1411.347656 574.210938 C 1410.960938 574.117188 1410.574219 574.277344 1410.371094 574.617188 " fill-opacity="1" fill-rule="evenodd"/><path fill="#ffcc00" d="M 960.296875 403.484375 L 958.480469 406.417969 C 958.347656 406.636719 958.152344 406.773438 957.90625 406.828125 C 957.660156 406.882812 957.421875 406.839844 957.210938 406.703125 L 954.316406 404.816406 C 953.988281 404.597656 953.570312 404.621094 953.257812 404.867188 C 952.949219 405.109375 952.835938 405.511719 952.96875 405.882812 L 954.132812 409.132812 C 954.21875 409.371094 954.207031 409.609375 954.09375 409.835938 C 953.984375 410.0625 953.800781 410.222656 953.5625 410.304688 L 950.285156 411.386719 C 949.910156 411.507812 949.664062 411.847656 949.664062 412.246094 C 949.660156 412.640625 949.902344 412.980469 950.277344 413.109375 L 953.542969 414.21875 C 953.785156 414.304688 953.960938 414.460938 954.074219 414.691406 C 954.179688 414.921875 954.1875 415.160156 954.105469 415.394531 L 952.90625 418.632812 C 952.769531 419.003906 952.882812 419.410156 953.191406 419.652344 C 953.5 419.902344 953.917969 419.929688 954.25 419.710938 L 957.160156 417.859375 C 957.375 417.71875 957.605469 417.679688 957.855469 417.738281 C 958.101562 417.796875 958.292969 417.933594 958.429688 418.152344 L 960.210938 421.105469 C 960.421875 421.445312 960.796875 421.605469 961.191406 421.523438 C 961.574219 421.433594 961.851562 421.121094 961.894531 420.730469 L 962.253906 417.296875 C 962.28125 417.042969 962.394531 416.835938 962.59375 416.679688 C 962.796875 416.519531 963.023438 416.457031 963.277344 416.492188 L 966.695312 416.9375 C 967.09375 416.984375 967.457031 416.789062 967.628906 416.429688 C 967.804688 416.074219 967.738281 415.664062 967.453125 415.386719 L 964.992188 412.96875 C 964.808594 412.789062 964.722656 412.570312 964.722656 412.3125 C 964.722656 412.058594 964.816406 411.84375 964.996094 411.664062 L 967.484375 409.265625 C 967.769531 408.992188 967.839844 408.582031 967.671875 408.222656 C 967.5 407.867188 967.136719 407.667969 966.742188 407.710938 L 963.316406 408.125 C 963.0625 408.15625 962.835938 408.089844 962.636719 407.929688 C 962.433594 407.769531 962.324219 407.558594 962.300781 407.3125 L 961.972656 403.875 C 961.9375 403.476562 961.660156 403.167969 961.273438 403.074219 C 960.886719 402.984375 960.503906 403.144531 960.296875 403.484375 " fill-opacity="1" fill-rule="evenodd"/><path fill="#ffcc00" d="M 705.953125 195.195312 L 704.136719 198.128906 C 704.003906 198.347656 703.8125 198.484375 703.5625 198.539062 C 703.3125 198.59375 703.082031 198.550781 702.871094 198.414062 L 699.976562 196.527344 C 699.644531 196.3125 699.230469 196.328125 698.917969 196.574219 C 698.605469 196.824219 698.492188 197.222656 698.625 197.597656 L 699.792969 200.84375 C 699.875 201.082031 699.863281 201.316406 699.75 201.550781 C 699.640625 201.777344 699.460938 201.929688 699.222656 202.011719 L 695.945312 203.097656 C 695.566406 203.222656 695.320312 203.558594 695.320312 203.953125 C 695.316406 204.351562 695.558594 204.6875 695.933594 204.816406 L 699.203125 205.933594 C 699.445312 206.011719 699.621094 206.171875 699.730469 206.40625 C 699.835938 206.632812 699.847656 206.867188 699.761719 207.105469 L 698.5625 210.34375 C 698.429688 210.71875 698.542969 211.117188 698.847656 211.367188 C 699.160156 211.617188 699.574219 211.636719 699.90625 211.425781 L 702.816406 209.566406 C 703.03125 209.429688 703.265625 209.390625 703.515625 209.445312 C 703.757812 209.503906 703.949219 209.644531 704.082031 209.863281 L 705.867188 212.816406 C 706.074219 213.152344 706.457031 213.320312 706.84375 213.230469 C 707.234375 213.144531 707.507812 212.832031 707.554688 212.4375 L 707.914062 209.003906 C 707.941406 208.757812 708.050781 208.546875 708.25 208.386719 C 708.453125 208.230469 708.683594 208.167969 708.933594 208.199219 L 712.355469 208.644531 C 712.746094 208.699219 713.113281 208.5 713.289062 208.144531 C 713.464844 207.789062 713.394531 207.378906 713.109375 207.097656 L 710.648438 204.675781 C 710.46875 204.496094 710.378906 204.277344 710.378906 204.027344 C 710.382812 203.773438 710.476562 203.554688 710.65625 203.375 L 713.140625 200.980469 C 713.425781 200.699219 713.5 200.296875 713.328125 199.933594 C 713.15625 199.574219 712.792969 199.375 712.398438 199.421875 L 708.972656 199.835938 C 708.71875 199.867188 708.492188 199.800781 708.292969 199.640625 C 708.09375 199.480469 707.984375 199.273438 707.957031 199.019531 L 707.628906 195.585938 C 707.59375 195.191406 707.316406 194.878906 706.929688 194.785156 C 706.546875 194.699219 706.160156 194.859375 705.953125 195.195312 " fill-opacity="1" fill-rule="evenodd"/><path fill="#ffcc00" d="M 406.554688 597.195312 L 394.957031 603.648438 C 394.105469 604.121094 393.539062 604.84375 393.285156 605.785156 C 393.027344 606.726562 393.148438 607.628906 393.648438 608.472656 L 400.386719 619.902344 C 401.160156 621.214844 401.011719 622.804688 400.015625 623.960938 C 399.015625 625.113281 397.457031 625.484375 396.046875 624.90625 L 383.773438 619.867188 C 382.863281 619.492188 381.953125 619.503906 381.058594 619.890625 C 380.160156 620.277344 379.527344 620.9375 379.183594 621.851562 L 374.445312 634.238281 C 373.898438 635.664062 372.5625 636.546875 371.039062 636.484375 C 369.511719 636.421875 368.253906 635.433594 367.828125 633.972656 L 364.113281 621.230469 C 363.839844 620.292969 363.261719 619.585938 362.40625 619.128906 C 361.542969 618.671875 360.628906 618.585938 359.699219 618.882812 L 347.054688 622.902344 C 345.601562 623.367188 344.078125 622.871094 343.179688 621.640625 C 342.277344 620.410156 342.265625 618.8125 343.140625 617.5625 L 350.785156 606.722656 C 351.351562 605.921875 351.542969 605.035156 351.363281 604.074219 C 351.1875 603.113281 350.683594 602.351562 349.875 601.8125 L 338.84375 594.433594 C 337.578125 593.585938 337.015625 592.089844 337.410156 590.613281 C 337.816406 589.144531 339.058594 588.132812 340.578125 588.042969 L 353.824219 587.261719 C 354.804688 587.203125 355.621094 586.800781 356.261719 586.0625 C 356.898438 585.324219 357.183594 584.457031 357.101562 583.484375 L 355.996094 570.265625 C 355.867188 568.742188 356.6875 567.375 358.085938 566.769531 C 359.492188 566.160156 361.050781 566.503906 362.070312 567.636719 L 370.945312 577.503906 C 371.597656 578.226562 372.421875 578.617188 373.398438 578.652344 C 374.375 578.695312 375.226562 578.378906 375.941406 577.707031 L 385.585938 568.597656 C 386.699219 567.546875 388.28125 567.332031 389.628906 568.054688 C 390.972656 568.769531 391.679688 570.203125 391.429688 571.710938 L 389.246094 584.792969 C 389.085938 585.757812 389.300781 586.648438 389.875 587.4375 C 390.453125 588.222656 391.242188 588.691406 392.207031 588.828125 L 405.34375 590.691406 C 406.855469 590.902344 408.007812 592.007812 408.289062 593.507812 C 408.566406 595.007812 407.890625 596.453125 406.554688 597.195312 " fill-opacity="1" fill-rule="evenodd"/><path fill="#ffcc00" d="M 371.398438 392.824219 L 367.949219 390.472656 C 367.691406 390.300781 367.539062 390.058594 367.484375 389.757812 C 367.429688 389.449219 367.496094 389.175781 367.675781 388.921875 L 370.113281 385.53125 C 370.394531 385.140625 370.394531 384.644531 370.113281 384.253906 C 369.832031 383.859375 369.355469 383.703125 368.898438 383.84375 L 364.910156 385.070312 C 364.613281 385.160156 364.324219 385.132812 364.058594 384.984375 C 363.789062 384.839844 363.605469 384.613281 363.527344 384.320312 L 362.394531 380.300781 C 362.261719 379.835938 361.871094 379.523438 361.390625 379.5 C 360.914062 379.476562 360.488281 379.75 360.3125 380.191406 L 358.785156 384.078125 C 358.671875 384.363281 358.472656 384.574219 358.1875 384.691406 C 357.902344 384.808594 357.617188 384.808594 357.332031 384.691406 L 353.488281 383.070312 C 353.046875 382.882812 352.550781 382.996094 352.238281 383.355469 C 351.917969 383.714844 351.867188 384.210938 352.109375 384.628906 L 354.195312 388.246094 C 354.347656 388.511719 354.386719 388.796875 354.300781 389.09375 C 354.214844 389.386719 354.039062 389.613281 353.765625 389.761719 L 350.101562 391.757812 C 349.679688 391.984375 349.460938 392.4375 349.542969 392.910156 C 349.625 393.386719 349.984375 393.738281 350.460938 393.808594 L 354.589844 394.429688 C 354.898438 394.480469 355.140625 394.625 355.320312 394.878906 C 355.496094 395.128906 355.5625 395.410156 355.511719 395.710938 L 354.78125 399.820312 C 354.699219 400.292969 354.917969 400.742188 355.335938 400.976562 C 355.757812 401.207031 356.261719 401.144531 356.613281 400.816406 L 359.671875 397.976562 C 359.898438 397.769531 360.171875 397.671875 360.480469 397.6875 C 360.785156 397.703125 361.042969 397.828125 361.25 398.058594 L 364.011719 401.1875 C 364.324219 401.546875 364.820312 401.660156 365.261719 401.476562 C 365.703125 401.289062 365.960938 400.859375 365.925781 400.378906 L 365.621094 396.21875 C 365.597656 395.910156 365.6875 395.640625 365.890625 395.410156 C 366.097656 395.175781 366.355469 395.050781 366.660156 395.039062 L 370.832031 394.832031 C 371.3125 394.808594 371.707031 394.492188 371.839844 394.03125 C 371.96875 393.566406 371.792969 393.097656 371.398438 392.824219 " fill-opacity="1" fill-rule="evenodd"/><path fill="#ffcc00" d="M 599.402344 749.695312 C 606.207031 749.695312 611.757812 744.144531 611.757812 737.34375 C 611.757812 730.542969 606.207031 724.996094 599.402344 724.996094 C 592.597656 724.996094 587.046875 730.542969 587.046875 737.34375 C 587.046875 744.144531 592.597656 749.695312 599.402344 749.695312 " fill-opacity="1" fill-rule="evenodd"/><path fill="#ffcc00" d="M 1374.085938 149.214844 C 1380.878906 149.214844 1386.4375 143.667969 1386.4375 136.863281 C 1386.4375 130.066406 1380.878906 124.515625 1374.085938 124.515625 C 1367.273438 124.515625 1361.726562 130.066406 1361.726562 136.863281 C 1361.726562 143.667969 1367.273438 149.214844 1374.085938 149.214844 " fill-opacity="1" fill-rule="evenodd"/><path fill="#ffcc00" d="M 435.457031 778.707031 L 439.710938 785.585938 C 440.019531 786.09375 440.472656 786.414062 441.058594 786.542969 C 441.636719 786.671875 442.183594 786.574219 442.679688 786.25 L 449.457031 781.828125 C 450.234375 781.320312 451.210938 781.367188 451.941406 781.945312 C 452.671875 782.519531 452.9375 783.457031 452.625 784.332031 L 449.894531 791.945312 C 449.695312 792.503906 449.726562 793.058594 449.984375 793.59375 C 450.246094 794.132812 450.664062 794.496094 451.230469 794.683594 L 458.90625 797.222656 C 459.792969 797.515625 460.363281 798.300781 460.371094 799.234375 C 460.375 800.164062 459.808594 800.957031 458.929688 801.257812 L 451.273438 803.875 C 450.707031 804.0625 450.296875 804.433594 450.035156 804.972656 C 449.785156 805.507812 449.757812 806.0625 449.964844 806.621094 L 452.765625 814.207031 C 453.082031 815.078125 452.824219 816.019531 452.101562 816.601562 C 451.375 817.183594 450.40625 817.238281 449.617188 816.738281 L 442.804688 812.382812 C 442.300781 812.0625 441.753906 811.96875 441.171875 812.109375 C 440.59375 812.242188 440.144531 812.566406 439.832031 813.078125 L 435.648438 819.996094 C 435.167969 820.792969 434.273438 821.175781 433.367188 820.96875 C 432.453125 820.769531 431.808594 820.039062 431.710938 819.113281 L 430.867188 811.070312 C 430.804688 810.480469 430.53125 809.996094 430.066406 809.625 C 429.597656 809.257812 429.066406 809.109375 428.472656 809.1875 L 420.453125 810.226562 C 419.527344 810.347656 418.671875 809.882812 418.265625 809.046875 C 417.855469 808.210938 418.019531 807.253906 418.683594 806.597656 L 424.449219 800.925781 C 424.871094 800.507812 425.085938 799.996094 425.078125 799.398438 C 425.078125 798.804688 424.863281 798.292969 424.429688 797.878906 L 418.617188 792.257812 C 417.949219 791.613281 417.773438 790.65625 418.171875 789.8125 C 418.574219 788.972656 419.425781 788.507812 420.351562 788.613281 L 428.382812 789.582031 C 428.972656 789.652344 429.503906 789.5 429.972656 789.125 C 430.433594 788.75 430.699219 788.261719 430.753906 787.671875 L 431.523438 779.625 C 431.613281 778.695312 432.253906 777.964844 433.160156 777.75 C 434.070312 777.542969 434.96875 777.914062 435.457031 778.707031 " fill-opacity="1" fill-rule="evenodd"/><path fill="#ffcc00" d="M 1191.167969 342.652344 L 1193.832031 346.96875 C 1194.039062 347.285156 1194.324219 347.492188 1194.6875 347.570312 C 1195.050781 347.652344 1195.390625 347.589844 1195.699219 347.382812 L 1199.957031 344.613281 C 1200.445312 344.292969 1201.050781 344.324219 1201.503906 344.683594 C 1201.972656 345.046875 1202.144531 345.632812 1201.9375 346.183594 L 1200.230469 350.957031 C 1200.105469 351.308594 1200.117188 351.65625 1200.285156 351.996094 C 1200.445312 352.328125 1200.710938 352.558594 1201.0625 352.679688 L 1205.890625 354.269531 C 1206.4375 354.453125 1206.804688 354.953125 1206.804688 355.535156 C 1206.804688 356.117188 1206.445312 356.613281 1205.898438 356.804688 L 1201.097656 358.441406 C 1200.746094 358.5625 1200.484375 358.796875 1200.324219 359.132812 C 1200.164062 359.46875 1200.140625 359.820312 1200.277344 360.171875 L 1202.03125 364.929688 C 1202.234375 365.476562 1202.066406 366.0625 1201.609375 366.433594 C 1201.152344 366.796875 1200.550781 366.832031 1200.058594 366.515625 L 1195.777344 363.785156 C 1195.460938 363.585938 1195.117188 363.523438 1194.753906 363.609375 C 1194.390625 363.691406 1194.117188 363.898438 1193.921875 364.21875 L 1191.292969 368.5625 C 1190.988281 369.058594 1190.425781 369.300781 1189.855469 369.171875 C 1189.289062 369.046875 1188.878906 368.589844 1188.820312 368.003906 L 1188.285156 362.964844 C 1188.25 362.589844 1188.082031 362.285156 1187.785156 362.050781 C 1187.492188 361.820312 1187.160156 361.730469 1186.78125 361.777344 L 1181.753906 362.429688 C 1181.183594 362.503906 1180.636719 362.214844 1180.382812 361.691406 C 1180.121094 361.167969 1180.226562 360.5625 1180.644531 360.152344 L 1184.257812 356.59375 C 1184.527344 356.335938 1184.664062 356.007812 1184.652344 355.636719 C 1184.652344 355.261719 1184.519531 354.941406 1184.257812 354.683594 L 1180.601562 351.160156 C 1180.179688 350.75 1180.074219 350.148438 1180.328125 349.625 C 1180.578125 349.09375 1181.113281 348.800781 1181.695312 348.867188 L 1186.726562 349.476562 C 1187.101562 349.523438 1187.433594 349.425781 1187.730469 349.195312 C 1188.015625 348.957031 1188.183594 348.652344 1188.21875 348.277344 L 1188.710938 343.226562 C 1188.753906 342.648438 1189.164062 342.1875 1189.730469 342.050781 C 1190.300781 341.921875 1190.863281 342.15625 1191.167969 342.652344 " fill-opacity="1" fill-rule="evenodd"/><path fill="#ffcc00" d="M 1176.832031 296.0625 L 1178.277344 293.722656 C 1178.390625 293.546875 1178.542969 293.4375 1178.746094 293.390625 C 1178.9375 293.351562 1179.121094 293.382812 1179.292969 293.496094 L 1181.601562 294.996094 C 1181.863281 295.171875 1182.191406 295.15625 1182.445312 294.960938 C 1182.695312 294.765625 1182.789062 294.445312 1182.671875 294.148438 L 1181.753906 291.554688 C 1181.679688 291.363281 1181.695312 291.171875 1181.785156 290.992188 C 1181.863281 290.808594 1182.011719 290.6875 1182.207031 290.621094 L 1184.8125 289.757812 C 1185.121094 289.65625 1185.316406 289.390625 1185.316406 289.074219 C 1185.316406 288.753906 1185.121094 288.488281 1184.824219 288.386719 L 1182.21875 287.492188 C 1182.023438 287.429688 1181.886719 287.300781 1181.796875 287.117188 C 1181.703125 286.9375 1181.703125 286.75 1181.773438 286.558594 L 1182.730469 283.976562 C 1182.832031 283.675781 1182.738281 283.355469 1182.503906 283.160156 C 1182.25 282.960938 1181.921875 282.941406 1181.660156 283.113281 L 1179.335938 284.597656 C 1179.164062 284.703125 1178.972656 284.734375 1178.777344 284.691406 C 1178.585938 284.644531 1178.425781 284.535156 1178.324219 284.363281 L 1176.898438 282.003906 C 1176.730469 281.734375 1176.433594 281.605469 1176.125 281.671875 C 1175.804688 281.742188 1175.59375 281.988281 1175.554688 282.304688 L 1175.273438 285.042969 C 1175.25 285.242188 1175.15625 285.40625 1174.996094 285.535156 C 1174.839844 285.660156 1174.65625 285.707031 1174.453125 285.6875 L 1171.730469 285.332031 C 1171.410156 285.289062 1171.117188 285.445312 1170.980469 285.730469 C 1170.84375 286.015625 1170.898438 286.34375 1171.125 286.566406 L 1173.082031 288.496094 C 1173.234375 288.640625 1173.300781 288.8125 1173.300781 289.015625 C 1173.300781 289.222656 1173.222656 289.394531 1173.074219 289.53125 L 1171.105469 291.449219 C 1170.878906 291.667969 1170.804688 291.996094 1170.945312 292.28125 C 1171.082031 292.566406 1171.375 292.726562 1171.6875 292.691406 L 1174.425781 292.359375 C 1174.621094 292.332031 1174.804688 292.386719 1174.964844 292.515625 C 1175.125 292.640625 1175.214844 292.808594 1175.234375 293.011719 L 1175.5 295.75 C 1175.519531 296.0625 1175.738281 296.3125 1176.046875 296.390625 C 1176.367188 296.460938 1176.660156 296.332031 1176.832031 296.0625 " fill-opacity="1" fill-rule="evenodd"/><path fill="#ffcc00" d="M 1423.792969 333.261719 L 1425.242188 330.917969 C 1425.347656 330.746094 1425.503906 330.640625 1425.699219 330.59375 C 1425.894531 330.550781 1426.085938 330.582031 1426.253906 330.691406 L 1428.558594 332.199219 C 1428.828125 332.371094 1429.15625 332.355469 1429.398438 332.160156 C 1429.648438 331.964844 1429.742188 331.644531 1429.636719 331.347656 L 1428.703125 328.753906 C 1428.632812 328.5625 1428.648438 328.375 1428.738281 328.195312 C 1428.828125 328.011719 1428.96875 327.886719 1429.15625 327.824219 L 1431.777344 326.957031 C 1432.074219 326.859375 1432.265625 326.589844 1432.28125 326.273438 C 1432.28125 325.957031 1432.085938 325.6875 1431.777344 325.582031 L 1429.179688 324.695312 C 1428.988281 324.628906 1428.84375 324.503906 1428.761719 324.320312 C 1428.667969 324.136719 1428.660156 323.945312 1428.726562 323.757812 L 1429.683594 321.175781 C 1429.796875 320.878906 1429.707031 320.558594 1429.457031 320.359375 C 1429.214844 320.160156 1428.886719 320.140625 1428.609375 320.316406 L 1426.289062 321.796875 C 1426.121094 321.90625 1425.9375 321.9375 1425.742188 321.894531 C 1425.539062 321.84375 1425.390625 321.734375 1425.289062 321.558594 L 1423.851562 319.203125 C 1423.691406 318.933594 1423.382812 318.804688 1423.078125 318.875 C 1422.769531 318.941406 1422.554688 319.191406 1422.523438 319.5 L 1422.222656 322.238281 C 1422.203125 322.445312 1422.113281 322.609375 1421.953125 322.734375 C 1421.800781 322.863281 1421.625 322.910156 1421.414062 322.882812 L 1418.683594 322.527344 C 1418.363281 322.488281 1418.078125 322.648438 1417.945312 322.933594 C 1417.792969 323.21875 1417.851562 323.542969 1418.078125 323.765625 L 1420.039062 325.695312 C 1420.1875 325.835938 1420.253906 326.015625 1420.253906 326.214844 C 1420.253906 326.417969 1420.1875 326.59375 1420.039062 326.734375 L 1418.054688 328.648438 C 1417.828125 328.871094 1417.773438 329.195312 1417.910156 329.476562 C 1418.046875 329.765625 1418.332031 329.925781 1418.648438 329.886719 L 1421.382812 329.558594 C 1421.585938 329.535156 1421.769531 329.585938 1421.929688 329.714844 C 1422.085938 329.84375 1422.167969 330.007812 1422.191406 330.210938 L 1422.449219 332.949219 C 1422.484375 333.265625 1422.703125 333.515625 1423.011719 333.585938 C 1423.316406 333.65625 1423.625 333.535156 1423.792969 333.261719 " fill-opacity="1" fill-rule="evenodd"/><path fill="#ffcc00" d="M 941.179688 799.011719 L 942.628906 796.671875 C 942.734375 796.5 942.886719 796.390625 943.085938 796.34375 C 943.28125 796.300781 943.46875 796.335938 943.636719 796.449219 L 945.945312 797.949219 C 946.210938 798.125 946.542969 798.105469 946.792969 797.910156 C 947.042969 797.714844 947.132812 797.394531 947.023438 797.097656 L 946.097656 794.507812 C 946.027344 794.316406 946.039062 794.125 946.125 793.945312 C 946.214844 793.761719 946.355469 793.636719 946.550781 793.574219 L 949.164062 792.707031 C 949.464844 792.609375 949.660156 792.339844 949.660156 792.023438 C 949.664062 791.707031 949.472656 791.4375 949.171875 791.335938 L 946.566406 790.445312 C 946.375 790.378906 946.230469 790.253906 946.148438 790.070312 C 946.058594 789.890625 946.050781 789.699219 946.121094 789.507812 L 947.074219 786.929688 C 947.183594 786.628906 947.09375 786.308594 946.851562 786.109375 C 946.601562 785.910156 946.265625 785.890625 946.003906 786.066406 L 943.683594 787.546875 C 943.507812 787.65625 943.324219 787.6875 943.128906 787.644531 C 942.929688 787.59375 942.777344 787.484375 942.671875 787.3125 L 941.246094 784.953125 C 941.082031 784.6875 940.777344 784.554688 940.46875 784.625 C 940.160156 784.691406 939.9375 784.941406 939.902344 785.257812 L 939.617188 787.992188 C 939.59375 788.195312 939.507812 788.359375 939.347656 788.484375 C 939.1875 788.613281 939.003906 788.664062 938.804688 788.636719 L 936.074219 788.28125 C 935.757812 788.238281 935.46875 788.398438 935.324219 788.683594 C 935.1875 788.96875 935.246094 789.292969 935.472656 789.515625 L 937.429688 791.449219 C 937.574219 791.59375 937.648438 791.765625 937.648438 791.96875 C 937.648438 792.171875 937.570312 792.34375 937.425781 792.484375 L 935.445312 794.398438 C 935.21875 794.621094 935.160156 794.945312 935.292969 795.230469 C 935.433594 795.519531 935.722656 795.679688 936.035156 795.636719 L 938.773438 795.308594 C 938.972656 795.289062 939.15625 795.339844 939.316406 795.464844 C 939.472656 795.59375 939.558594 795.757812 939.578125 795.964844 L 939.84375 798.703125 C 939.871094 799.019531 940.089844 799.265625 940.402344 799.339844 C 940.707031 799.410156 941.015625 799.285156 941.179688 799.011719 " fill-opacity="1" fill-rule="evenodd"/><path fill="#ffcc00" d="M 813.132812 764.105469 L 814.582031 761.761719 C 814.683594 761.589844 814.839844 761.476562 815.035156 761.433594 C 815.238281 761.394531 815.421875 761.425781 815.59375 761.535156 L 817.902344 763.039062 C 818.164062 763.210938 818.496094 763.199219 818.746094 763.003906 C 818.996094 762.808594 819.082031 762.488281 818.976562 762.1875 L 818.046875 759.597656 C 817.980469 759.40625 817.988281 759.21875 818.078125 759.035156 C 818.167969 758.855469 818.308594 758.726562 818.5 758.664062 L 821.117188 757.800781 C 821.417969 757.699219 821.613281 757.429688 821.613281 757.117188 C 821.613281 756.800781 821.421875 756.527344 821.125 756.425781 L 818.519531 755.539062 C 818.328125 755.46875 818.183594 755.347656 818.097656 755.160156 C 818.007812 754.976562 818.003906 754.789062 818.070312 754.597656 L 819.027344 752.015625 C 819.136719 751.71875 819.046875 751.398438 818.800781 751.203125 C 818.554688 751.003906 818.222656 750.984375 817.953125 751.152344 L 815.636719 752.636719 C 815.464844 752.746094 815.277344 752.777344 815.082031 752.730469 C 814.878906 752.6875 814.730469 752.574219 814.621094 752.402344 L 813.199219 750.046875 C 813.035156 749.773438 812.726562 749.644531 812.421875 749.710938 C 812.109375 749.785156 811.890625 750.027344 811.855469 750.34375 L 811.566406 753.082031 C 811.550781 753.289062 811.457031 753.453125 811.300781 753.578125 C 811.140625 753.699219 810.957031 753.75 810.753906 753.726562 L 808.027344 753.371094 C 807.710938 753.332031 807.417969 753.488281 807.277344 753.773438 C 807.140625 754.058594 807.195312 754.386719 807.421875 754.609375 L 809.382812 756.539062 C 809.53125 756.679688 809.601562 756.851562 809.601562 757.058594 C 809.601562 757.261719 809.527344 757.4375 809.378906 757.574219 L 807.398438 759.488281 C 807.171875 759.707031 807.109375 760.035156 807.25 760.320312 C 807.386719 760.605469 807.675781 760.765625 807.992188 760.730469 L 810.722656 760.402344 C 810.925781 760.375 811.109375 760.429688 811.265625 760.558594 C 811.425781 760.683594 811.511719 760.851562 811.53125 761.050781 L 811.792969 763.789062 C 811.824219 764.109375 812.042969 764.359375 812.351562 764.429688 C 812.660156 764.5 812.96875 764.371094 813.132812 764.105469 " fill-opacity="1" fill-rule="evenodd"/><path fill="#71e8fa" d="M 1261.71875 188.761719 L 1293.796875 206.257812 C 1296.21875 207.578125 1297.117188 210.644531 1295.800781 213.070312 C 1294.535156 215.386719 1291.679688 216.316406 1289.308594 215.234375 C 1285.628906 213.558594 1281.691406 213.792969 1278.242188 215.898438 C 1268.867188 221.585938 1256.8125 222.269531 1246.496094 216.644531 C 1236.191406 211.019531 1230.234375 200.511719 1229.949219 189.5625 C 1229.847656 185.515625 1227.914062 182.085938 1224.503906 179.894531 C 1222.320312 178.492188 1221.558594 175.585938 1222.820312 173.269531 C 1224.140625 170.84375 1227.207031 169.945312 1229.628906 171.265625 L 1261.71875 188.761719 " fill-opacity="1" fill-rule="evenodd"/><path fill="#3d90ba" d="M 1299.386719 205.621094 L 1227.148438 166.222656 C 1223.425781 164.195312 1218.710938 165.578125 1216.671875 169.304688 C 1214.644531 173.027344 1216.023438 177.738281 1219.761719 179.769531 L 1291.984375 219.164062 C 1295.722656 221.199219 1300.421875 219.808594 1302.460938 216.089844 C 1304.496094 212.363281 1303.109375 207.652344 1299.386719 205.621094 " fill-opacity="1" fill-rule="evenodd"/><path fill="#71e8fa" d="M 1268.757812 202.8125 C 1266.582031 201.628906 1265.78125 198.902344 1266.96875 196.734375 C 1268.152344 194.558594 1270.882812 193.757812 1273.058594 194.945312 C 1275.226562 196.128906 1276.03125 198.851562 1274.847656 201.023438 C 1273.652344 203.199219 1270.929688 204 1268.757812 202.8125 Z M 1246.085938 190.445312 C 1243.910156 189.257812 1243.109375 186.539062 1244.300781 184.363281 C 1245.480469 182.195312 1248.203125 181.394531 1250.378906 182.578125 C 1252.554688 183.765625 1253.351562 186.484375 1252.167969 188.65625 C 1250.980469 190.828125 1248.261719 191.628906 1246.085938 190.445312 Z M 1223.402344 178.078125 C 1221.226562 176.890625 1220.429688 174.167969 1221.613281 172 C 1222.796875 169.824219 1225.519531 169.023438 1227.695312 170.207031 C 1229.871094 171.394531 1230.679688 174.117188 1229.484375 176.289062 C 1228.300781 178.464844 1225.578125 179.265625 1223.402344 178.078125 Z M 1291.4375 215.179688 C 1289.261719 213.996094 1288.464844 211.273438 1289.648438 209.097656 C 1290.832031 206.929688 1293.554688 206.128906 1295.730469 207.3125 C 1297.90625 208.5 1298.703125 211.21875 1297.519531 213.394531 C 1296.335938 215.5625 1293.613281 216.367188 1291.4375 215.179688 " fill-opacity="1" fill-rule="evenodd"/><path fill="#33799c" d="M 1287.953125 194.960938 L 1293.339844 197.898438 C 1291.277344 201.664062 1287.203125 203.40625 1284.230469 201.785156 C 1281.257812 200.160156 1280.519531 195.796875 1282.570312 192.023438 L 1287.953125 194.960938 " fill-opacity="1" fill-rule="evenodd"/><path fill="#33799c" d="M 1265.125 182.511719 L 1270.511719 185.449219 C 1268.445312 189.214844 1264.371094 190.957031 1261.402344 189.335938 C 1258.429688 187.710938 1257.6875 183.339844 1259.738281 179.574219 L 1265.125 182.511719 " fill-opacity="1" fill-rule="evenodd"/><path fill="#33799c" d="M 1242.292969 170.058594 L 1247.679688 172.996094 C 1245.628906 176.765625 1241.542969 178.503906 1238.570312 176.886719 C 1235.597656 175.261719 1234.855469 170.890625 1236.917969 167.125 L 1242.292969 170.058594 " fill-opacity="1" fill-rule="evenodd"/><path fill="#4892a5" d="M 1070.644531 711.085938 C 1070.09375 713.441406 1067.722656 714.914062 1065.375 714.367188 L 1018.863281 703.550781 C 1016.507812 703.003906 1015.035156 700.628906 1015.578125 698.28125 C 1016.128906 695.929688 1018.5 694.453125 1020.855469 695 L 1067.363281 705.820312 C 1069.714844 706.367188 1071.191406 708.734375 1070.644531 711.085938 " fill-opacity="1" fill-rule="evenodd"/><path fill="#4892a5" d="M 1061.929688 748.519531 C 1061.382812 750.875 1059.011719 752.347656 1056.660156 751.800781 L 1010.148438 740.984375 C 1007.796875 740.4375 1006.320312 738.066406 1006.871094 735.714844 C 1007.417969 733.363281 1009.789062 731.886719 1012.140625 732.433594 L 1058.648438 743.253906 C 1061 743.800781 1062.476562 746.167969 1061.929688 748.519531 " fill-opacity="1" fill-rule="evenodd"/><path fill="#5fc0d8" d="M 1094.886719 736.457031 C 1091.550781 750.792969 1077.222656 759.707031 1062.878906 756.375 C 1048.539062 753.039062 1039.621094 738.710938 1042.957031 724.378906 C 1046.296875 710.042969 1060.621094 701.128906 1074.960938 704.460938 C 1089.304688 707.796875 1098.222656 722.125 1094.886719 736.457031 " fill-opacity="1" fill-rule="evenodd"/><path fill="#6ad6f1" d="M 1092.859375 735.988281 C 1090.453125 746.324219 1080.121094 752.753906 1069.785156 750.347656 C 1059.445312 747.941406 1053.007812 737.613281 1055.417969 727.277344 C 1057.820312 716.9375 1068.152344 710.507812 1078.496094 712.914062 C 1088.835938 715.320312 1095.265625 725.648438 1092.859375 735.988281 " fill-opacity="1" fill-rule="evenodd"/><path fill="#53a9be" d="M 1050.960938 726.242188 C 1050.414062 728.59375 1048.042969 730.070312 1045.691406 729.515625 L 999.179688 718.703125 C 996.828125 718.15625 995.355469 715.78125 995.902344 713.433594 C 996.449219 711.082031 998.820312 709.605469 1001.171875 710.152344 L 1047.679688 720.972656 C 1050.03125 721.519531 1051.507812 723.886719 1050.960938 726.242188 " fill-opacity="1" fill-rule="evenodd"/></svg>